<svg width="349" height="73" viewBox="0 0 349 73" fill="none" xmlns="http://www.w3.org/2000/svg">
<g filter="url(#filter0_d_71_155)">
<rect x="4" y="4" width="61" height="61" rx="21" fill="white"/>
</g>
<g filter="url(#filter1_d_71_155)">
<path fill-rule="evenodd" clip-rule="evenodd" d="M34.8769 11.5309C30.6892 11.5309 27.2944 14.9257 27.2944 19.1133V34.0205C27.2944 34.0248 27.2944 34.0291 27.2944 34.0334C27.2944 34.0377 27.2944 34.042 27.2944 34.0464C27.2944 38.2197 30.6776 41.6029 34.851 41.6029H34.8714C34.8733 41.6029 34.8751 41.6029 34.8769 41.6029C34.8787 41.6029 34.8805 41.6029 34.8823 41.6029L49.9129 41.6029C54.0863 41.6029 57.4695 38.2197 57.4695 34.0464C57.4695 29.873 54.0863 26.4898 49.9129 26.4898H42.4593V19.1133C42.4593 14.9256 39.0645 11.5309 34.8769 11.5309Z" fill="#1ACC8D"/>
<path fill-rule="evenodd" clip-rule="evenodd" d="M34.8765 56.716C39.0642 56.716 42.459 53.3213 42.459 49.1336V34.2264C42.459 34.2221 42.459 34.2178 42.459 34.2135C42.459 34.2092 42.459 34.2049 42.459 34.2006C42.459 30.0272 39.0758 26.644 34.9024 26.644H34.882C34.8802 26.644 34.8784 26.644 34.8765 26.644C34.8747 26.644 34.8729 26.644 34.8711 26.644L19.8405 26.644C15.6671 26.644 12.2839 30.0272 12.2839 34.2006C12.2839 38.3739 15.6671 41.7571 19.8405 41.7571H27.2941V49.1336C27.2941 53.3213 30.6889 56.716 34.8765 56.716Z" fill="#1217A4"/>
<path fill-rule="evenodd" clip-rule="evenodd" d="M42.6141 41.6029L35.0371 41.6029L35.0317 41.6029L35.0262 41.6029H35.0058C30.8324 41.6029 27.4492 38.2197 27.4492 34.0463L27.4492 34.0334L27.4492 34.0205V26.644L35.0262 26.644L35.0317 26.644L35.0371 26.644H35.0575C39.2309 26.644 42.6141 30.0272 42.6141 34.2006L42.6141 34.2135L42.6141 34.2264V41.6029Z" fill="#02125B"/>
</g>
<path d="M339.839 50.4C337.119 50.4 334.919 49.7866 333.239 48.56C331.572 47.32 330.559 45.5733 330.199 43.32L335.759 42.48C335.985 43.4933 336.485 44.2866 337.259 44.86C338.045 45.4333 339.039 45.72 340.239 45.72C341.225 45.72 341.985 45.5333 342.519 45.16C343.052 44.7733 343.319 44.24 343.319 43.56C343.319 43.1333 343.212 42.7933 342.999 42.54C342.785 42.2733 342.305 42.0133 341.559 41.76C340.825 41.5066 339.679 41.1733 338.119 40.76C336.359 40.3066 334.952 39.8 333.899 39.24C332.845 38.68 332.085 38.0133 331.619 37.24C331.152 36.4533 330.919 35.5066 330.919 34.4C330.919 33.0133 331.272 31.8133 331.979 30.8C332.685 29.7733 333.679 28.9866 334.959 28.44C336.252 27.88 337.772 27.6 339.519 27.6C341.212 27.6 342.712 27.86 344.019 28.38C345.325 28.9 346.379 29.64 347.179 30.6C347.992 31.56 348.492 32.6933 348.679 34L343.119 35C343.025 34.2 342.679 33.5666 342.079 33.1C341.479 32.6333 340.665 32.36 339.639 32.28C338.639 32.2133 337.832 32.3466 337.219 32.68C336.619 33.0133 336.319 33.4933 336.319 34.12C336.319 34.4933 336.445 34.8066 336.699 35.06C336.965 35.3133 337.505 35.5733 338.319 35.84C339.145 36.1066 340.399 36.4533 342.079 36.88C343.719 37.3066 345.032 37.8066 346.019 38.38C347.019 38.94 347.745 39.62 348.199 40.42C348.652 41.2066 348.879 42.16 348.879 43.28C348.879 45.4933 348.079 47.2333 346.479 48.5C344.879 49.7666 342.665 50.4 339.839 50.4Z" fill="white"/>
<path d="M314.078 50.4C312.532 50.4 311.218 50.1066 310.138 49.52C309.072 48.92 308.258 48.1266 307.698 47.14C307.152 46.14 306.878 45.04 306.878 43.84C306.878 42.84 307.032 41.9266 307.338 41.1C307.645 40.2733 308.138 39.5466 308.818 38.92C309.512 38.28 310.438 37.7466 311.598 37.32C312.398 37.0266 313.352 36.7666 314.458 36.54C315.565 36.3133 316.818 36.1 318.218 35.9C319.618 35.6866 321.158 35.4533 322.838 35.2L320.878 36.28C320.878 35 320.572 34.06 319.958 33.46C319.345 32.86 318.318 32.56 316.878 32.56C316.078 32.56 315.245 32.7533 314.378 33.14C313.512 33.5266 312.905 34.2133 312.558 35.2L307.638 33.64C308.185 31.8533 309.212 30.4 310.718 29.28C312.225 28.16 314.278 27.6 316.878 27.6C318.785 27.6 320.478 27.8933 321.958 28.48C323.438 29.0666 324.558 30.08 325.318 31.52C325.745 32.32 325.998 33.12 326.078 33.92C326.158 34.72 326.198 35.6133 326.198 36.6V49.8H321.438V45.36L322.118 46.28C321.065 47.7333 319.925 48.7866 318.698 49.44C317.485 50.08 315.945 50.4 314.078 50.4ZM315.238 46.12C316.238 46.12 317.078 45.9466 317.758 45.6C318.452 45.24 318.998 44.8333 319.398 44.38C319.812 43.9266 320.092 43.5466 320.238 43.24C320.518 42.6533 320.678 41.9733 320.718 41.2C320.772 40.4133 320.798 39.76 320.798 39.24L322.398 39.64C320.785 39.9066 319.478 40.1333 318.478 40.32C317.478 40.4933 316.672 40.6533 316.058 40.8C315.445 40.9466 314.905 41.1066 314.438 41.28C313.905 41.4933 313.472 41.7266 313.138 41.98C312.818 42.22 312.578 42.4866 312.418 42.78C312.272 43.0733 312.198 43.4 312.198 43.76C312.198 44.2533 312.318 44.68 312.558 45.04C312.812 45.3866 313.165 45.6533 313.618 45.84C314.072 46.0266 314.612 46.12 315.238 46.12Z" fill="white"/>
<path d="M297.437 49.8V37.04C297.437 35.6133 297.097 34.5067 296.417 33.72C295.751 32.92 294.824 32.52 293.637 32.52C292.877 32.52 292.217 32.7 291.657 33.06C291.097 33.4067 290.657 33.9 290.337 34.54C290.031 35.1667 289.877 35.8933 289.877 36.72L287.597 35.2C287.597 33.72 287.944 32.4133 288.637 31.28C289.344 30.1467 290.284 29.2667 291.457 28.64C292.644 28 293.957 27.68 295.397 27.68C297.864 27.68 299.724 28.4133 300.977 29.88C302.244 31.3333 302.877 33.24 302.877 35.6V49.8H297.437ZM271.397 49.8V28.2H276.197V35.36H276.877V49.8H271.397ZM284.437 49.8V37.04C284.437 35.6133 284.097 34.5067 283.417 33.72C282.751 32.92 281.824 32.52 280.637 32.52C279.504 32.52 278.591 32.9133 277.897 33.7C277.217 34.4733 276.877 35.48 276.877 36.72L274.597 35.12C274.597 33.7067 274.951 32.44 275.657 31.32C276.364 30.2 277.311 29.3133 278.497 28.66C279.697 28.0067 281.037 27.68 282.517 27.68C284.211 27.68 285.597 28.04 286.677 28.76C287.771 29.48 288.577 30.44 289.097 31.64C289.617 32.84 289.877 34.16 289.877 35.6V49.8H284.437Z" fill="white"/>
<path d="M258.003 50.4C255.283 50.4 253.083 49.7866 251.403 48.56C249.736 47.32 248.723 45.5733 248.363 43.32L253.923 42.48C254.149 43.4933 254.649 44.2866 255.423 44.86C256.209 45.4333 257.203 45.72 258.403 45.72C259.389 45.72 260.149 45.5333 260.683 45.16C261.216 44.7733 261.483 44.24 261.483 43.56C261.483 43.1333 261.376 42.7933 261.163 42.54C260.949 42.2733 260.469 42.0133 259.723 41.76C258.989 41.5066 257.843 41.1733 256.283 40.76C254.523 40.3066 253.116 39.8 252.063 39.24C251.009 38.68 250.249 38.0133 249.783 37.24C249.316 36.4533 249.083 35.5066 249.083 34.4C249.083 33.0133 249.436 31.8133 250.143 30.8C250.849 29.7733 251.843 28.9866 253.123 28.44C254.416 27.88 255.936 27.6 257.683 27.6C259.376 27.6 260.876 27.86 262.183 28.38C263.489 28.9 264.543 29.64 265.343 30.6C266.156 31.56 266.656 32.6933 266.843 34L261.283 35C261.189 34.2 260.843 33.5666 260.243 33.1C259.643 32.6333 258.829 32.36 257.803 32.28C256.803 32.2133 255.996 32.3466 255.383 32.68C254.783 33.0133 254.483 33.4933 254.483 34.12C254.483 34.4933 254.609 34.8066 254.863 35.06C255.129 35.3133 255.669 35.5733 256.483 35.84C257.309 36.1066 258.563 36.4533 260.243 36.88C261.883 37.3066 263.196 37.8066 264.183 38.38C265.183 38.94 265.909 39.62 266.363 40.42C266.816 41.2066 267.043 42.16 267.043 43.28C267.043 45.4933 266.243 47.2333 264.643 48.5C263.043 49.7666 260.829 50.4 258.003 50.4Z" fill="white"/>
<path d="M235.267 50.4C233.054 50.4 231.1 49.9266 229.407 48.98C227.727 48.02 226.407 46.7066 225.447 45.04C224.5 43.36 224.027 41.44 224.027 39.28C224.027 36.92 224.494 34.8666 225.427 33.12C226.36 31.3733 227.647 30.02 229.287 29.06C230.927 28.0866 232.814 27.6 234.947 27.6C237.214 27.6 239.14 28.1333 240.727 29.2C242.314 30.2666 243.487 31.7666 244.247 33.7C245.007 35.6333 245.274 37.9066 245.047 40.52H239.667V38.52C239.667 36.32 239.314 34.74 238.607 33.78C237.914 32.8066 236.774 32.32 235.187 32.32C233.334 32.32 231.967 32.8866 231.087 34.02C230.22 35.14 229.787 36.8 229.787 39C229.787 41.0133 230.22 42.5733 231.087 43.68C231.967 44.7733 233.254 45.32 234.947 45.32C236.014 45.32 236.927 45.0866 237.687 44.62C238.447 44.1533 239.027 43.48 239.427 42.6L244.867 44.16C244.054 46.1333 242.767 47.6666 241.007 48.76C239.26 49.8533 237.347 50.4 235.267 50.4ZM228.107 40.52V36.48H242.427V40.52H228.107Z" fill="white"/>
<path d="M203.507 49.8L203.547 21H209.067V38.6L216.387 28.2H223.107L215.307 39L223.627 49.8H216.547L209.067 39.4V49.8H203.507Z" fill="white"/>
<path d="M190.112 50.4C187.392 50.4 185.192 49.7866 183.512 48.56C181.846 47.32 180.832 45.5733 180.472 43.32L186.032 42.48C186.259 43.4933 186.759 44.2866 187.532 44.86C188.319 45.4333 189.312 45.72 190.512 45.72C191.499 45.72 192.259 45.5333 192.792 45.16C193.326 44.7733 193.592 44.24 193.592 43.56C193.592 43.1333 193.486 42.7933 193.272 42.54C193.059 42.2733 192.579 42.0133 191.832 41.76C191.099 41.5066 189.952 41.1733 188.392 40.76C186.632 40.3066 185.226 39.8 184.172 39.24C183.119 38.68 182.359 38.0133 181.892 37.24C181.425 36.4533 181.192 35.5066 181.192 34.4C181.192 33.0133 181.545 31.8133 182.252 30.8C182.959 29.7733 183.952 28.9866 185.232 28.44C186.526 27.88 188.046 27.6 189.792 27.6C191.486 27.6 192.986 27.86 194.292 28.38C195.599 28.9 196.652 29.64 197.452 30.6C198.266 31.56 198.766 32.6933 198.952 34L193.392 35C193.299 34.2 192.952 33.5666 192.352 33.1C191.752 32.6333 190.939 32.36 189.912 32.28C188.912 32.2133 188.106 32.3466 187.492 32.68C186.892 33.0133 186.592 33.4933 186.592 34.12C186.592 34.4933 186.719 34.8066 186.972 35.06C187.239 35.3133 187.779 35.5733 188.592 35.84C189.419 36.1066 190.672 36.4533 192.352 36.88C193.992 37.3066 195.306 37.8066 196.292 38.38C197.292 38.94 198.019 39.62 198.472 40.42C198.926 41.2066 199.152 42.16 199.152 43.28C199.152 45.4933 198.352 47.2333 196.752 48.5C195.152 49.7666 192.939 50.4 190.112 50.4Z" fill="white"/>
<path d="M164.282 50.44C162.589 50.44 161.209 50.1533 160.142 49.58C159.076 49.0066 158.242 48.28 157.642 47.4C157.056 46.52 156.636 45.6066 156.382 44.66C156.129 43.7 155.976 42.8266 155.922 42.04C155.869 41.2533 155.842 40.68 155.842 40.32V28.2H161.362V38.4C161.362 38.8933 161.389 39.5266 161.442 40.3C161.496 41.06 161.662 41.8266 161.942 42.6C162.222 43.3733 162.676 44.02 163.302 44.54C163.942 45.06 164.842 45.32 166.002 45.32C166.469 45.32 166.969 45.2466 167.502 45.1C168.036 44.9533 168.536 44.6733 169.002 44.26C169.469 43.8333 169.849 43.2133 170.142 42.4C170.449 41.5733 170.602 40.4933 170.602 39.16L173.722 40.64C173.722 42.3466 173.376 43.9466 172.682 45.44C171.989 46.9333 170.942 48.14 169.542 49.06C168.156 49.98 166.402 50.44 164.282 50.44ZM171.282 49.8V42.64H170.602V28.2H176.082V49.8H171.282Z" fill="white"/>
<path d="M130.227 49.8V21H142.387C142.667 21 143.04 21.0133 143.507 21.04C143.987 21.0533 144.413 21.0933 144.787 21.16C146.507 21.4267 147.913 21.9933 149.007 22.86C150.113 23.7267 150.927 24.82 151.447 26.14C151.967 27.4467 152.227 28.9067 152.227 30.52C152.227 32.1333 151.96 33.6 151.427 34.92C150.907 36.2267 150.093 37.3133 148.987 38.18C147.893 39.0467 146.493 39.6133 144.787 39.88C144.413 39.9333 143.987 39.9733 143.507 40C143.027 40.0267 142.653 40.04 142.387 40.04H135.667V49.8H130.227ZM135.667 34.96H142.147C142.427 34.96 142.733 34.9467 143.067 34.92C143.4 34.8933 143.707 34.84 143.987 34.76C144.72 34.56 145.287 34.2267 145.687 33.76C146.087 33.28 146.36 32.7533 146.507 32.18C146.667 31.5933 146.747 31.04 146.747 30.52C146.747 30 146.667 29.4533 146.507 28.88C146.36 28.2933 146.087 27.7667 145.687 27.3C145.287 26.82 144.72 26.48 143.987 26.28C143.707 26.2 143.4 26.1467 143.067 26.12C142.733 26.0933 142.427 26.08 142.147 26.08H135.667V34.96Z" fill="white"/>
<path d="M110.174 59.4L114.334 47.96L114.414 51.32L105.014 28.2H110.654L116.974 44.56H115.694L121.974 28.2H127.414L115.214 59.4H110.174Z" fill="#1ACC8D"/>
<path d="M73 49.8V21H77.88L87.4 40.12L96.92 21H101.8V49.8H96.72V32.6L88.36 49.8H86.44L78.08 32.6V49.8H73Z" fill="#1ACC8D"/>
<defs>
<filter id="filter0_d_71_155" x="0" y="0" width="73" height="73" filterUnits="userSpaceOnUse" color-interpolation-filters="sRGB">
<feFlood flood-opacity="0" result="BackgroundImageFix"/>
<feColorMatrix in="SourceAlpha" type="matrix" values="0 0 0 0 0 0 0 0 0 0 0 0 0 0 0 0 0 0 127 0" result="hardAlpha"/>
<feMorphology radius="2" operator="erode" in="SourceAlpha" result="effect1_dropShadow_71_155"/>
<feOffset dx="2" dy="2"/>
<feGaussianBlur stdDeviation="4"/>
<feComposite in2="hardAlpha" operator="out"/>
<feColorMatrix type="matrix" values="0 0 0 0 0 0 0 0 0 0 0 0 0 0 0 0 0 0 0.25 0"/>
<feBlend mode="normal" in2="BackgroundImageFix" result="effect1_dropShadow_71_155"/>
<feBlend mode="normal" in="SourceGraphic" in2="effect1_dropShadow_71_155" result="shape"/>
</filter>
<filter id="filter1_d_71_155" x="11.2842" y="10.5309" width="51.1851" height="51.1852" filterUnits="userSpaceOnUse" color-interpolation-filters="sRGB">
<feFlood flood-opacity="0" result="BackgroundImageFix"/>
<feColorMatrix in="SourceAlpha" type="matrix" values="0 0 0 0 0 0 0 0 0 0 0 0 0 0 0 0 0 0 127 0" result="hardAlpha"/>
<feOffset dx="2" dy="2"/>
<feGaussianBlur stdDeviation="1.5"/>
<feComposite in2="hardAlpha" operator="out"/>
<feColorMatrix type="matrix" values="0 0 0 0 0 0 0 0 0 0 0 0 0 0 0 0 0 0 0.1 0"/>
<feBlend mode="normal" in2="BackgroundImageFix" result="effect1_dropShadow_71_155"/>
<feBlend mode="normal" in="SourceGraphic" in2="effect1_dropShadow_71_155" result="shape"/>
</filter>
</defs>
</svg>
