<svg width="564" height="111" viewBox="0 0 564 111" fill="none" xmlns="http://www.w3.org/2000/svg">
<g filter="url(#filter0_d_72_190)">
<rect x="4" y="4" width="99" height="99" rx="21" fill="white"/>
</g>
<g filter="url(#filter1_d_72_190)">
<path fill-rule="evenodd" clip-rule="evenodd" d="M54.1111 16.2222C47.3147 16.2222 41.8052 21.7318 41.8052 28.5282V52.7217C41.8052 52.7288 41.8052 52.7358 41.8052 52.7428C41.8052 52.7498 41.8052 52.7567 41.8052 52.7637C41.8052 59.5369 47.2959 65.0277 54.0691 65.0277H54.1111H78.5138C85.287 65.0277 90.7778 59.5369 90.7778 52.7637C90.7778 45.9906 85.287 40.4998 78.5139 40.4998H66.417V28.5282C66.417 21.7318 60.9075 16.2222 54.1111 16.2222Z" fill="#1ACC8D"/>
<path fill-rule="evenodd" clip-rule="evenodd" d="M54.1111 89.5556C60.9074 89.5556 66.417 84.046 66.417 77.2496V53.056C66.417 53.049 66.417 53.042 66.417 53.035C66.417 53.028 66.417 53.021 66.417 53.014C66.417 46.2408 60.9263 40.7501 54.1531 40.7501H54.1111H29.7083C22.9351 40.7501 17.4444 46.2408 17.4444 53.014C17.4444 59.7872 22.9351 65.278 29.7083 65.278H41.8051V77.2496C41.8051 84.046 47.3147 89.5556 54.1111 89.5556Z" fill="#1217A4"/>
<path fill-rule="evenodd" clip-rule="evenodd" d="M66.668 65.0277H54.3621H54.3201C47.5469 65.0277 42.0562 59.5369 42.0562 52.7637L42.0562 52.7428L42.0562 52.7217V40.7501H54.3621H54.4041C61.1773 40.7501 66.668 46.2408 66.668 53.014L66.668 53.035L66.668 53.056V65.0277Z" fill="#02125B"/>
</g>
<path d="M549.321 79.3177C544.905 79.3177 541.333 78.3218 538.605 76.33C535.898 74.3165 534.253 71.4804 533.668 67.8215L542.697 66.4575C543.065 68.1029 543.876 69.3911 545.132 70.3221C546.41 71.253 548.023 71.7185 549.971 71.7185C551.573 71.7185 552.807 71.4154 553.673 70.8092C554.539 70.1814 554.972 69.3153 554.972 68.2112C554.972 67.5184 554.799 66.9663 554.453 66.555C554.106 66.122 553.327 65.6998 552.114 65.2884C550.924 64.8771 549.062 64.3358 546.529 63.6647C543.671 62.9286 541.387 62.1059 539.676 61.1965C537.966 60.2872 536.732 59.2047 535.974 57.949C535.216 56.6717 534.838 55.1345 534.838 53.3376C534.838 51.0859 535.411 49.1374 536.559 47.492C537.706 45.825 539.319 44.5476 541.398 43.6599C543.498 42.7506 545.966 42.296 548.802 42.296C551.551 42.296 553.987 42.7182 556.109 43.5625C558.231 44.4069 559.941 45.6085 561.24 47.1673C562.561 48.7261 563.372 50.5663 563.675 52.688L554.647 54.3118C554.496 53.0128 553.933 51.9844 552.959 51.2267C551.984 50.4689 550.664 50.0251 548.997 49.8952C547.373 49.7869 546.063 50.0034 545.067 50.5447C544.093 51.0859 543.606 51.8653 543.606 52.8829C543.606 53.4891 543.812 53.9979 544.223 54.4092C544.656 54.8206 545.533 55.2428 546.853 55.6758C548.196 56.1088 550.231 56.6717 552.959 57.3645C555.622 58.0573 557.754 58.8692 559.356 59.8001C560.98 60.7094 562.16 61.8136 562.896 63.1126C563.632 64.3899 564 65.9379 564 67.7565C564 71.3505 562.701 74.1758 560.103 76.2326C557.505 78.2893 553.911 79.3177 549.321 79.3177Z" fill="black"/>
<path d="M507.493 79.3177C504.981 79.3177 502.849 78.8414 501.095 77.8888C499.363 76.9145 498.043 75.6264 497.133 74.0242C496.246 72.4005 495.802 70.6144 495.802 68.6658C495.802 67.0421 496.051 65.559 496.549 64.2167C497.047 62.8744 497.848 61.6945 498.952 60.6769C500.078 59.6377 501.582 58.7717 503.466 58.0789C504.765 57.6026 506.313 57.1805 508.11 56.8124C509.907 56.4443 511.942 56.0979 514.215 55.7732C516.488 55.4268 518.989 55.0479 521.717 54.6366L518.534 56.3902C518.534 54.3118 518.036 52.7855 517.041 51.8112C516.045 50.837 514.378 50.3498 512.039 50.3498C510.74 50.3498 509.387 50.6638 507.98 51.2916C506.573 51.9195 505.588 53.0345 505.025 54.6366L497.036 52.1035C497.923 49.2024 499.591 46.8425 502.037 45.0239C504.483 43.2053 507.818 42.296 512.039 42.296C515.135 42.296 517.885 42.7723 520.288 43.7249C522.691 44.6775 524.51 46.3229 525.744 48.6611C526.437 49.9601 526.848 51.2591 526.978 52.5581C527.108 53.8572 527.173 55.3077 527.173 56.9098V78.3434H519.444V71.134L520.548 72.6278C518.837 74.9877 516.986 76.698 514.995 77.7589C513.024 78.7981 510.524 79.3177 507.493 79.3177ZM509.376 72.368C511 72.368 512.364 72.0866 513.468 71.5237C514.594 70.9391 515.482 70.2788 516.131 69.5427C516.802 68.8066 517.257 68.1895 517.495 67.6916C517.95 66.739 518.21 65.6348 518.275 64.3791C518.361 63.1018 518.404 62.0409 518.404 61.1965L521.002 61.8461C518.383 62.2791 516.261 62.6471 514.637 62.9502C513.014 63.2317 511.704 63.4915 510.708 63.7296C509.712 63.9678 508.835 64.2276 508.077 64.509C507.211 64.8554 506.508 65.2343 505.966 65.6457C505.447 66.0354 505.057 66.4684 504.797 66.9447C504.559 67.421 504.44 67.9514 504.44 68.5359C504.44 69.337 504.635 70.0298 505.025 70.6144C505.436 71.1773 506.01 71.6103 506.746 71.9134C507.482 72.2165 508.359 72.368 509.376 72.368Z" fill="black"/>
<path d="M480.472 78.3435V57.6243C480.472 55.3077 479.92 53.5108 478.816 52.2334C477.733 50.9344 476.229 50.2849 474.302 50.2849C473.068 50.2849 471.996 50.5772 471.087 51.1617C470.178 51.7246 469.463 52.5257 468.943 53.5649C468.446 54.5825 468.197 55.7624 468.197 57.1047L464.494 54.6366C464.494 52.2334 465.057 50.1117 466.183 48.2715C467.331 46.4312 468.857 45.0023 470.762 43.9847C472.689 42.9455 474.821 42.4259 477.16 42.4259C481.165 42.4259 484.185 43.6167 486.22 45.9982C488.277 48.3581 489.305 51.454 489.305 55.2861V78.3435H480.472ZM438.189 78.3435V43.2703H445.984V54.8964H447.088V78.3435H438.189ZM459.363 78.3435V57.6243C459.363 55.3077 458.811 53.5108 457.707 52.2334C456.625 50.9344 455.12 50.2849 453.193 50.2849C451.353 50.2849 449.87 50.9236 448.744 52.2009C447.64 53.4567 447.088 55.0912 447.088 57.1047L443.386 54.5067C443.386 52.2118 443.959 50.155 445.107 48.3364C446.254 46.5178 447.791 45.0781 449.718 44.0172C451.667 42.9563 453.843 42.4259 456.246 42.4259C458.995 42.4259 461.247 43.0105 463.001 44.1796C464.776 45.3487 466.086 46.9075 466.93 48.856C467.774 50.8045 468.197 52.9479 468.197 55.2861V78.3435H459.363Z" fill="black"/>
<path d="M416.44 79.3177C412.023 79.3177 408.451 78.3218 405.723 76.33C403.017 74.3165 401.371 71.4804 400.787 67.8215L409.815 66.4575C410.183 68.1029 410.995 69.3911 412.25 70.3221C413.528 71.253 415.141 71.7185 417.089 71.7185C418.691 71.7185 419.925 71.4154 420.791 70.8092C421.657 70.1814 422.09 69.3153 422.09 68.2112C422.09 67.5184 421.917 66.9663 421.571 66.555C421.224 66.122 420.445 65.6998 419.233 65.2884C418.042 64.8771 416.18 64.3358 413.647 63.6647C410.789 62.9286 408.505 62.1059 406.795 61.1965C405.084 60.2872 403.85 59.2047 403.092 57.949C402.335 56.6717 401.956 55.1345 401.956 53.3376C401.956 51.0859 402.529 49.1374 403.677 47.492C404.824 45.825 406.437 44.5476 408.516 43.6599C410.616 42.7506 413.084 42.296 415.92 42.296C418.67 42.296 421.105 42.7182 423.227 43.5625C425.349 44.4069 427.059 45.6085 428.358 47.1673C429.679 48.7261 430.491 50.5663 430.794 52.688L421.766 54.3118C421.614 53.0128 421.051 51.9844 420.077 51.2267C419.103 50.4689 417.782 50.0251 416.115 49.8952C414.491 49.7869 413.181 50.0034 412.185 50.5447C411.211 51.0859 410.724 51.8653 410.724 52.8829C410.724 53.4891 410.93 53.9979 411.341 54.4092C411.774 54.8206 412.651 55.2428 413.972 55.6758C415.314 56.1088 417.349 56.6717 420.077 57.3645C422.74 58.0573 424.872 58.8692 426.474 59.8001C428.098 60.7094 429.278 61.8136 430.014 63.1126C430.75 64.3899 431.118 65.9379 431.118 67.7565C431.118 71.3505 429.819 74.1758 427.221 76.2326C424.623 78.2893 421.029 79.3177 416.44 79.3177Z" fill="black"/>
<path d="M379.522 79.3177C375.928 79.3177 372.756 78.5491 370.007 77.012C367.279 75.4532 365.136 73.3206 363.577 70.6144C362.04 67.8864 361.271 64.7688 361.271 61.2615C361.271 57.4294 362.029 54.0953 363.544 51.2591C365.06 48.423 367.149 46.2255 369.812 44.6667C372.475 43.0862 375.538 42.296 379.002 42.296C382.683 42.296 385.811 43.162 388.388 44.894C390.964 46.626 392.869 49.0617 394.103 52.2009C395.337 55.3402 395.77 59.0315 395.402 63.275H386.667V60.0274C386.667 56.4552 386.093 53.8896 384.945 52.3308C383.82 50.7504 381.968 49.9601 379.392 49.9601C376.383 49.9601 374.164 50.8803 372.735 52.7205C371.327 54.5391 370.624 57.2346 370.624 60.8068C370.624 64.076 371.327 66.6091 372.735 68.406C374.164 70.1814 376.253 71.069 379.002 71.069C380.734 71.069 382.217 70.6901 383.452 69.9324C384.686 69.1746 385.627 68.0813 386.277 66.6524L395.11 69.1854C393.789 72.3897 391.7 74.8794 388.842 76.6547C386.006 78.43 382.899 79.3177 379.522 79.3177ZM367.896 63.275V56.715H391.148V63.275H367.896Z" fill="black"/>
<path d="M327.951 78.3435L328.016 31.5792H336.979V60.1574L348.865 43.2703H359.777L347.112 60.8069L360.621 78.3435H349.125L336.979 61.4564V78.3435H327.951Z" fill="black"/>
<path d="M306.201 79.3177C301.785 79.3177 298.212 78.3218 295.485 76.33C292.778 74.3165 291.133 71.4804 290.548 67.8215L299.576 66.4575C299.945 68.1029 300.756 69.3911 302.012 70.3221C303.289 71.253 304.902 71.7185 306.851 71.7185C308.453 71.7185 309.687 71.4154 310.553 70.8092C311.419 70.1814 311.852 69.3153 311.852 68.2112C311.852 67.5184 311.679 66.9663 311.332 66.555C310.986 66.122 310.207 65.6998 308.994 65.2884C307.803 64.8771 305.942 64.3358 303.409 63.6647C300.551 62.9286 298.267 62.1059 296.556 61.1965C294.846 60.2872 293.612 59.2047 292.854 57.949C292.096 56.6717 291.717 55.1345 291.717 53.3376C291.717 51.0859 292.291 49.1374 293.439 47.492C294.586 45.825 296.199 44.5476 298.277 43.6599C300.377 42.7506 302.846 42.296 305.682 42.296C308.431 42.296 310.867 42.7182 312.989 43.5625C315.11 44.4069 316.821 45.6085 318.12 47.1673C319.44 48.7261 320.252 50.5663 320.555 52.688L311.527 54.3118C311.376 53.0128 310.813 51.9844 309.839 51.2267C308.864 50.4689 307.544 50.0251 305.877 49.8952C304.253 49.7869 302.943 50.0034 301.947 50.5447C300.973 51.0859 300.486 51.8653 300.486 52.8829C300.486 53.4891 300.691 53.9979 301.103 54.4092C301.536 54.8206 302.413 55.2428 303.733 55.6758C305.076 56.1088 307.111 56.6717 309.839 57.3645C312.502 58.0573 314.634 58.8692 316.236 59.8001C317.86 60.7094 319.04 61.8136 319.776 63.1126C320.512 64.3899 320.88 65.9379 320.88 67.7565C320.88 71.3505 319.581 74.1758 316.983 76.2326C314.385 78.2893 310.791 79.3177 306.201 79.3177Z" fill="black"/>
<path d="M264.26 79.3827C261.511 79.3827 259.27 78.9172 257.538 77.9862C255.806 77.0553 254.453 75.8753 253.478 74.4464C252.526 73.0175 251.844 71.5345 251.432 69.9973C251.021 68.4385 250.772 67.0204 250.686 65.7431C250.599 64.4657 250.556 63.5348 250.556 62.9502V43.2703H259.519V59.8326C259.519 60.6337 259.562 61.662 259.649 62.9178C259.735 64.1518 260.006 65.3967 260.461 66.6524C260.915 67.9081 261.651 68.9581 262.669 69.8025C263.708 70.6468 265.169 71.069 267.053 71.069C267.811 71.069 268.623 70.9499 269.489 70.7118C270.355 70.4736 271.167 70.019 271.924 69.3478C272.682 68.655 273.299 67.6483 273.775 66.3276C274.273 64.9853 274.522 63.2317 274.522 61.0667L279.588 63.4698C279.588 66.241 279.026 68.8391 277.9 71.2639C276.774 73.6887 275.074 75.648 272.801 77.1419C270.55 78.6357 267.703 79.3827 264.26 79.3827ZM275.627 78.3435V66.7173H274.522V43.2703H283.421V78.3435H275.627Z" fill="black"/>
<path d="M208.962 78.3435V31.5792H228.707C229.161 31.5792 229.768 31.6009 230.525 31.6442C231.305 31.6658 231.998 31.7308 232.604 31.839C235.397 32.272 237.681 33.1922 239.456 34.5994C241.253 36.0067 242.574 37.782 243.418 39.9253C244.262 42.0471 244.685 44.4177 244.685 47.0374C244.685 49.6571 244.252 52.0386 243.386 54.182C242.541 56.3037 241.221 58.0681 239.424 59.4754C237.648 60.8827 235.375 61.8028 232.604 62.2358C231.998 62.3224 231.305 62.3874 230.525 62.4307C229.746 62.474 229.14 62.4956 228.707 62.4956H217.795V78.3435H208.962ZM217.795 54.2469H228.317C228.772 54.2469 229.27 54.2253 229.811 54.182C230.352 54.1387 230.85 54.0521 231.305 53.9221C232.496 53.5974 233.416 53.0561 234.065 52.2984C234.715 51.519 235.159 50.6638 235.397 49.7329C235.657 48.7802 235.786 47.8818 235.786 47.0374C235.786 46.1931 235.657 45.3054 235.397 44.3744C235.159 43.4218 234.715 42.5667 234.065 41.8089C233.416 41.0295 232.496 40.4774 231.305 40.1527C230.85 40.0228 230.352 39.9362 229.811 39.8929C229.27 39.8496 228.772 39.8279 228.317 39.8279H217.795V54.2469Z" fill="black"/>
<path d="M176.402 93.9315L183.156 75.3557L183.286 80.8116L168.023 43.2703H177.181L187.443 69.835H185.365L195.562 43.2703H204.395L184.585 93.9315H176.402Z" fill="#1ACC8D"/>
<path d="M116.04 78.3435V31.5792H123.963L139.422 62.6255L154.88 31.5792H162.804V78.3435H154.555V50.4148L140.98 78.3435H137.863L124.288 50.4148V78.3435H116.04Z" fill="#1ACC8D"/>
<defs>
<filter id="filter0_d_72_190" x="0" y="0" width="111" height="111" filterUnits="userSpaceOnUse" color-interpolation-filters="sRGB">
<feFlood flood-opacity="0" result="BackgroundImageFix"/>
<feColorMatrix in="SourceAlpha" type="matrix" values="0 0 0 0 0 0 0 0 0 0 0 0 0 0 0 0 0 0 127 0" result="hardAlpha"/>
<feMorphology radius="2" operator="erode" in="SourceAlpha" result="effect1_dropShadow_72_190"/>
<feOffset dx="2" dy="2"/>
<feGaussianBlur stdDeviation="4"/>
<feComposite in2="hardAlpha" operator="out"/>
<feColorMatrix type="matrix" values="0 0 0 0 0 0 0 0 0 0 0 0 0 0 0 0 0 0 0.25 0"/>
<feBlend mode="normal" in2="BackgroundImageFix" result="effect1_dropShadow_72_190"/>
<feBlend mode="normal" in="SourceGraphic" in2="effect1_dropShadow_72_190" result="shape"/>
</filter>
<filter id="filter1_d_72_190" x="16.4443" y="15.2222" width="79.3335" height="79.3333" filterUnits="userSpaceOnUse" color-interpolation-filters="sRGB">
<feFlood flood-opacity="0" result="BackgroundImageFix"/>
<feColorMatrix in="SourceAlpha" type="matrix" values="0 0 0 0 0 0 0 0 0 0 0 0 0 0 0 0 0 0 127 0" result="hardAlpha"/>
<feOffset dx="2" dy="2"/>
<feGaussianBlur stdDeviation="1.5"/>
<feComposite in2="hardAlpha" operator="out"/>
<feColorMatrix type="matrix" values="0 0 0 0 0 0 0 0 0 0 0 0 0 0 0 0 0 0 0.1 0"/>
<feBlend mode="normal" in2="BackgroundImageFix" result="effect1_dropShadow_72_190"/>
<feBlend mode="normal" in="SourceGraphic" in2="effect1_dropShadow_72_190" result="shape"/>
</filter>
</defs>
</svg>
